<svg width="48" height="48" viewBox="0 0 48 48" fill="none" xmlns="http://www.w3.org/2000/svg">
<path fill-rule="evenodd" clip-rule="evenodd" d="M24 48C37.2548 48 48 37.2548 48 24C48 10.7452 37.2548 0 24 0C10.7452 0 0 10.7452 0 24C0 37.2548 10.7452 48 24 48Z" fill="#F5365C" fill-opacity="0.29"/>
<path d="M33.7354 19.2301L24.1354 14.7501C24.0496 14.7101 23.9504 14.7101 23.8647 14.7501L14.2647 19.2301C14.152 19.2826 14.08 19.3955 14.08 19.52C14.08 19.6445 14.152 19.7574 14.2647 19.8099L23.8647 24.2899C23.9075 24.3101 23.9536 24.32 24 24.32C24.0464 24.32 24.0925 24.3101 24.1354 24.2899L27.52 22.7104V30.9376L25.9795 33.0941C25.9101 33.1917 25.9005 33.3197 25.9555 33.4266C26.0103 33.5331 26.12 33.6 26.24 33.6H29.44C29.56 33.6 29.6698 33.5331 29.7245 33.4266C29.7792 33.3197 29.7699 33.1917 29.7005 33.0941L28.16 30.9376V22.4118L33.7354 19.8099C33.848 19.7574 33.92 19.6445 33.92 19.52C33.92 19.3955 33.848 19.2826 33.7354 19.2301Z" fill="#F5365C"/>
<path d="M26.88 23.7155L24.4061 24.8701C24.28 24.9286 24.1395 24.96 24 24.96C23.8605 24.96 23.72 24.9286 23.5936 24.8701L17.28 21.9235V27.2C17.28 28.9942 20.2317 30.4 24 30.4C25.0381 30.4 26.0106 30.2902 26.88 30.0979V23.7155Z" fill="#F5365C"/>
<path d="M28.8 22.8195V29.4589C29.9923 28.8842 30.72 28.0902 30.72 27.2V21.9232L28.8 22.8195Z" fill="#F5365C"/>
</svg>
