<svg width="14" height="14" viewBox="0 0 14 14" fill="none" xmlns="http://www.w3.org/2000/svg">
<path d="M13.7562 3.7117L12.3512 2.30669L13.3295 1.32834C13.4964 1.16151 13.4964 0.891861 13.3295 0.725035C13.1627 0.558208 12.893 0.558208 12.7262 0.725035L6.76825 6.68301C6.8779 6.77303 6.98329 6.86861 7.08484 6.96973C7.18638 7.07127 7.28153 7.17666 7.37156 7.28631L10.0412 4.61666L11.4462 6.02167C11.5294 6.10487 11.6386 6.14669 11.7479 6.14669C11.8571 6.14669 11.9663 6.10487 12.0495 6.02167L13.7562 4.31501C13.923 4.14818 13.923 3.87853 13.7562 3.7117Z" fill="white"/>
<path d="M6.48153 7.57304C5.83683 6.92835 4.97966 6.57336 4.06787 6.57336C3.15609 6.57336 2.29891 6.92835 1.65422 7.57304C1.00953 8.21774 0.654541 9.07491 0.654541 9.9867C0.654541 10.8985 1.00953 11.7557 1.65422 12.4004C2.29891 13.045 3.15609 13.4 4.06787 13.4C4.97966 13.4 5.83683 13.045 6.48153 12.4004C7.12622 11.7557 7.48121 10.8985 7.48121 9.9867C7.48121 9.07491 7.12622 8.21774 6.48153 7.57304Z" fill="white"/>
</svg>
