<svg width="28" height="30" viewBox="0 0 28 30" fill="none" xmlns="http://www.w3.org/2000/svg">
<path fill-rule="evenodd" clip-rule="evenodd" d="M16.8655 18.3248C18.4743 18.1617 20.7453 17.5763 22.6391 16.3283C24.6239 15.0203 26.1698 13.0084 26.1698 9.96113C26.1698 6.81929 25.0706 4.93668 23.7696 3.82966C22.4447 2.70223 20.8488 2.32733 19.8084 2.32733H2.23085C1.66235 2.32733 1.37933 3.01622 1.78365 3.4159L16.8655 18.3248Z" fill="#EA0022"/>
<path d="M22.6391 16.3283C20.7453 17.5763 18.4743 18.1617 16.8655 18.3248L1.78365 3.4159C1.37933 3.01622 1.66235 2.32733 2.23085 2.32733H19.8084C20.8488 2.32733 22.4447 2.70223 23.7696 3.82966C25.0706 4.93668 26.1698 6.81929 26.1698 9.96113C26.1698 13.0084 24.6239 15.0203 22.6391 16.3283Z" fill="#EA0022"/>
<path d="M22.6399 16.9647C20.7461 18.2127 18.4751 18.7981 16.8664 18.9611L2.06964 3.69232L14.1554 13.3208C16.8664 15.4595 19.6011 15.2695 22.1782 14.0567C23.5368 13.4173 25.1086 12.2185 26.3074 8.99497C26.4566 10.0582 27.0104 13.9999 22.6399 16.9647Z" fill="#9B0003"/>
<path fill-rule="evenodd" clip-rule="evenodd" d="M14.0848 28.4095L3.70817 18.5152C3.30327 18.1292 2.63306 18.4162 2.63306 18.9756V27.7733C2.63306 28.1247 2.91786 28.4095 3.26919 28.4095H14.0848Z" fill="#BDBDBD"/>
<path d="M3.70817 18.5152L14.0848 28.4095H3.26919C2.91786 28.4095 2.63306 28.1247 2.63306 27.7733V18.9756C2.63306 18.4162 3.30327 18.1292 3.70817 18.5152Z" fill="#BDBDBD"/>
<path opacity="0.58" d="M3.56431 25.4459L3.56435 23.7117C3.60212 25.2104 3.88865 26.2223 4.6853 26.6642C6.1216 27.4302 5.579 27.526 3.999 27.4302C3.52115 27.4012 3.58386 26.2218 3.56431 25.4459Z" fill="white"/>
<path d="M8.77969 23.374C12.1073 27.7332 8.30829 28.823 5.99286 28.823H14.6029L8.77969 23.374Z" fill="#797979"/>
<path opacity="0.58" d="M19.9595 3.07446H15.2822C18.1465 3.07446 20.7083 3.60298 21.5905 5.10339C22.4797 7.0821 24.598 6.96523 23.7387 5.34209C22.8794 3.71895 21.4424 3.07446 19.9595 3.07446Z" fill="white"/>
<path fill-rule="evenodd" clip-rule="evenodd" d="M0.889155 4.32091C-0.323785 3.12189 0.52524 1.05521 2.23077 1.05521H19.8083C21.1005 1.05521 23.0033 1.5073 24.594 2.86086C26.2087 4.23482 27.442 6.48718 27.442 9.9613C27.442 13.53 25.5951 15.9041 23.3391 17.3909C21.6127 18.5286 19.6328 19.1604 18.0027 19.4492L25.0506 26.4162C26.2636 27.6153 25.4145 29.6819 23.709 29.6819H3.26884C2.21485 29.6819 1.36043 28.8275 1.36043 27.7735V18.9758C1.36043 17.2974 3.37106 16.4363 4.58578 17.5946L15.9281 28.4096H23.709C24.2775 28.4096 24.5605 27.7207 24.1562 27.3211L0.889155 4.32091ZM22.639 16.3285C20.7452 17.5765 18.4742 18.1619 16.8654 18.3249L1.78357 3.41608C1.37925 3.0164 1.66227 2.32751 2.23077 2.32751H19.8083C20.8487 2.32751 22.4446 2.7024 23.7695 3.82984C25.0705 4.93685 26.1697 6.81946 26.1697 9.9613C26.1697 13.0085 24.6238 15.0205 22.639 16.3285ZM14.0845 28.4096L3.70782 18.5154C3.30291 18.1293 2.6327 18.4163 2.6327 18.9758V27.7735C2.6327 28.1248 2.91751 28.4096 3.26884 28.4096H14.0845Z" fill="black"/>
<path fill-rule="evenodd" clip-rule="evenodd" d="M0.665714 4.54711C-0.749381 3.14825 0.241145 0.737122 2.23094 0.737122H19.8085C21.1636 0.737122 23.1432 1.20852 24.8003 2.6186C26.4934 4.0593 27.7602 6.4041 27.7602 9.96129C27.7602 13.6604 25.8381 16.125 23.5142 17.6564C21.9513 18.6864 20.1908 19.3101 18.6533 19.6449L25.2744 26.19C26.6895 27.5889 25.699 30 23.7092 30H3.269C2.03935 30 1.04253 29.0032 1.04253 27.7735V18.9758C1.04253 17.0176 3.38827 16.0131 4.80543 17.3644L16.0556 28.0916H23.7092C23.9934 28.0916 24.1349 27.7471 23.9328 27.5473L0.665714 4.54711ZM13.2901 28.0916L3.48849 18.7456C3.28604 18.5525 2.95093 18.6961 2.95093 18.9758V27.7735C2.95093 27.9491 3.09334 28.0916 3.269 28.0916H13.2901ZM16.9817 17.9924C18.5408 17.8132 20.6798 17.2388 22.4641 16.0629C24.3812 14.7995 25.8518 12.8781 25.8518 9.96129C25.8518 6.90252 24.7861 5.11235 23.5636 4.07207C22.3051 3.00117 20.7859 2.64557 19.8085 2.64557H2.23094C1.94669 2.64557 1.80518 2.99001 2.00734 3.18986L16.9817 17.9924Z" fill="black"/>
</svg>
