<svg width="110" height="29" viewBox="0 0 110 29" fill="none" xmlns="http://www.w3.org/2000/svg">
<path d="M17.1444 28.6083C16.9815 28.6083 16.8289 28.5289 16.7353 28.3956L11.6357 21.1345C11.5348 20.9909 11.3659 20.9109 11.1908 20.9223C10.6545 20.9572 10.223 20.9747 9.89624 20.9747H4.19632C3.92018 20.9747 3.69632 21.1985 3.69632 21.4747V28.1083C3.69632 28.3844 3.47246 28.6083 3.19632 28.6083H0.612549C0.336406 28.6083 0.112549 28.3844 0.112549 28.1083V4.0213C0.112549 3.74516 0.336406 3.5213 0.612549 3.5213H9.89624C13.1455 3.5213 15.702 4.2978 17.5655 5.85081C19.4291 7.40381 20.3609 9.54218 20.3609 12.2659C20.3609 14.2012 19.883 15.8498 18.9273 17.2116C18.0861 18.4105 16.93 19.3224 15.4592 19.9472C15.1537 20.077 15.0323 20.4558 15.2238 20.727L20.234 27.8198C20.4679 28.151 20.231 28.6083 19.8256 28.6083H17.1444ZM9.78873 17.9284C12.0585 17.9284 13.7906 17.4386 14.9852 16.459C16.1798 15.4794 16.7771 14.0817 16.7771 12.2659C16.7771 10.4501 16.1798 9.06433 14.9852 8.10864C13.7906 7.12905 12.0585 6.63926 9.78873 6.63926H4.19632C3.92018 6.63926 3.69632 6.86311 3.69632 7.13926V17.4284C3.69632 17.7045 3.92018 17.9284 4.19632 17.9284H9.78873Z" fill="black"/>
<path d="M58.3421 9.82714C58.3421 9.551 58.566 9.32715 58.8421 9.32715H63.4328C63.7089 9.32715 63.9328 9.551 63.9328 9.82715V28.1083C63.9328 28.3844 63.7089 28.6083 63.4328 28.6083H61.1374H58.3421V23.891V9.82714Z" fill="black"/>
<path d="M78.0405 9.04044C80.4297 9.04044 82.353 9.75721 83.8104 11.1908C85.2917 12.6243 86.0323 14.7507 86.0323 17.57V28.1083C86.0323 28.3844 85.8085 28.6083 85.5323 28.6083H80.9417C80.6655 28.6083 80.4417 28.3844 80.4417 28.1083V18.4301C80.4417 16.901 80.1072 15.7661 79.4382 15.0255C78.7692 14.2609 77.8016 13.8786 76.5353 13.8786C75.1257 13.8786 74.0028 14.3207 73.1666 15.2047C72.3304 16.0648 71.9123 17.355 71.9123 19.0752V28.1083C71.9123 28.3844 71.6884 28.6083 71.4123 28.6083H66.8216C66.5454 28.6083 66.3216 28.3844 66.3216 28.1083V9.82715C66.3216 9.551 66.5454 9.32715 66.8216 9.32715H71.1614C71.4376 9.32715 71.6614 9.551 71.6614 9.82715V10.2945C71.6614 10.7511 72.2498 10.9924 72.6148 10.718C73.1506 10.3151 73.7526 9.98289 74.4209 9.72137C75.5199 9.26742 76.7265 9.04044 78.0405 9.04044Z" fill="black"/>
<path d="M96.9256 21.4769C96.7399 21.2465 96.3958 21.2268 96.1851 21.4347L94.0397 23.5516C93.9445 23.6455 93.8909 23.7737 93.8909 23.9075V28.1083C93.8909 28.3844 93.667 28.6083 93.3909 28.6083H88.8002C88.524 28.6083 88.3002 28.3844 88.3002 28.1083V2.51608C88.3002 2.23994 88.524 2.01608 88.8002 2.01608H93.3909C93.667 2.01608 93.8909 2.23994 93.8909 2.51608V15.9058C93.8909 16.3448 94.4161 16.5707 94.7347 16.2688L101.917 9.46417C102.01 9.37619 102.133 9.32715 102.261 9.32715H107.536C107.979 9.32715 108.203 9.86131 107.892 10.1776L101.008 17.1845C100.832 17.3639 100.817 17.6464 100.972 17.8441L108.808 27.799C109.066 28.127 108.832 28.6083 108.415 28.6083H102.91C102.759 28.6083 102.616 28.5398 102.521 28.422L96.9256 21.4769Z" fill="black"/>
<path d="M45.2287 26.8522C46.495 28.0229 48.2749 28.6083 50.5685 28.6083H58.3421V23.891H51.4408C50.6763 23.891 50.079 23.676 49.6489 23.2459C49.2428 22.792 49.0397 22.1588 49.0397 21.3465V13.9979C49.0397 13.7217 49.2636 13.4979 49.5397 13.4979H53.342C53.6181 13.4979 53.842 13.274 53.842 12.9979V9.69723C53.842 9.42109 53.6181 9.19723 53.342 9.19723H49.5397C49.2636 9.19723 49.0397 8.97337 49.0397 8.69723V5.00238C49.0397 4.72624 48.8158 4.50238 48.5397 4.50238H43.949C43.6729 4.50238 43.449 4.72624 43.449 5.00238V8.69723C43.449 8.97337 43.2252 9.19723 42.949 9.19723H40.9745C40.6983 9.19723 40.4745 9.42109 40.4745 9.69723V12.9979C40.4745 13.274 40.6983 13.4979 40.9745 13.4979H42.9439C43.222 13.4979 43.4467 13.7248 43.4438 14.003L43.3651 21.6914C43.3651 23.9612 43.9863 25.6815 45.2287 26.8522Z" fill="black"/>
<path fill-rule="evenodd" clip-rule="evenodd" d="M39.7468 19.2186C39.7468 19.3836 39.7374 19.5816 39.7186 19.8125C39.6978 20.0664 39.4824 20.2579 39.2276 20.2579H24.8333C24.5319 20.2579 24.2974 20.5234 24.3587 20.8185C24.6532 22.2346 25.3506 23.3977 26.451 24.3077C27.7173 25.3111 29.2822 25.8129 31.1458 25.8129H39.2468C39.523 25.8129 39.7468 26.0367 39.7468 26.3129V28.3233C39.7468 28.5995 39.523 28.8233 39.2468 28.8233H31.0382C29.0313 28.8233 27.2514 28.4171 25.6984 27.6048C24.1455 26.7686 22.9389 25.6098 22.0788 24.1285C21.2426 22.6471 20.8245 20.9747 20.8245 19.1111C20.8245 17.2714 21.2307 15.6108 22.043 14.1295C22.8792 12.6482 24.0141 11.5014 25.4476 10.689C26.905 9.85278 28.5416 9.43466 30.3573 9.43466C32.1731 9.43466 33.7858 9.85278 35.1954 10.689C36.6289 11.5014 37.7399 12.6482 38.5283 14.1295C39.3407 15.6108 39.7468 17.3072 39.7468 19.2186ZM26.2002 13.8428C27.3231 12.8393 28.7088 12.3376 30.3573 12.3376C32.0059 12.3376 33.3797 12.8513 34.4787 13.8786C35.4686 14.7632 36.0964 15.8799 36.3622 17.2287C36.4201 17.5227 36.1861 17.785 35.8865 17.785H24.8272C24.5279 17.785 24.2941 17.5232 24.3503 17.2293C24.6127 15.8581 25.2293 14.7292 26.2002 13.8428Z" fill="black"/>
<rect x="57.5063" width="6.71957" height="6.71973" rx="3" fill="#EA0022"/>
</svg>
